
<svg width="95" height="23" viewBox="0 0 95 23" fill="none" xmlns="http://www.w3.org/2000/svg"><path fill-rule="evenodd" clip-rule="evenodd" d="M20.7103 0.415771H24.0007L16.9767 22.6489H13.6365L20.7103 0.415771Z" fill="currentColor"></path><path fill-rule="evenodd" clip-rule="evenodd" d="M1.90571 0.415771H6.32953C8.74176 0.415771 10.4992 0.897159 11.6021 1.85993C12.7051 2.80376 13.2566 4.15928 13.2566 5.92651C13.2566 7.53576 12.8141 8.93022 11.9292 10.1099C11.0443 11.2701 9.7945 12.1359 8.17407 12.7072L12.3718 22.6489H8.75094L4.90237 13.4554H4.40036V22.6489H0.932861V0.415771H1.90571ZM4.40036 10.0498H6.11358C7.51909 10.0498 8.5307 9.77061 9.1784 9.21228C9.84553 8.654 10.1792 7.82725 10.1792 6.73204C10.1792 5.62645 9.90453 4.84022 9.35527 4.37333C8.82544 3.90644 7.9887 3.673 6.84501 3.673H4.40036V10.0498Z" fill="currentColor"></path><path fill-rule="evenodd" clip-rule="evenodd" d="M31.351 0.415771H35.7748C38.7197 0.415771 40.8822 1.05652 42.2627 2.33799C43.6627 3.60009 44.3629 5.34797 44.3629 7.58159C44.3629 9.63511 43.7393 11.3621 42.492 12.7626C41.2642 14.1437 39.4539 14.8343 37.061 14.8343H34.8185V22.6489H31.351V0.415771ZM34.8185 11.5769H36.9004C38.4902 11.5769 39.6969 11.2141 40.5206 10.4886C41.3442 9.76313 41.7561 8.73895 41.7561 7.42604C41.7561 6.11309 41.3878 5.1228 40.6515 4.45513C39.9151 3.78746 38.7681 3.45365 37.2098 3.45365H34.8185V11.5769Z" fill="currentColor"></path><path fill-rule="evenodd" clip-rule="evenodd" d="M52.7686 0.415771H56.2362V19.3914H64.5599V22.6489H52.7686V0.415771Z" fill="currentColor"></path><path fill-rule="evenodd" clip-rule="evenodd" d="M74.1775 0.195312C76.9511 0.195312 79.1538 0.983611 80.7854 2.56021C82.4364 4.13687 83.262 6.4254 83.262 9.42583C83.262 12.4068 82.4364 14.6854 80.7854 16.262C79.1344 17.8193 76.9316 18.5978 74.1775 18.5978C71.4233 18.5978 69.2108 17.8193 67.5404 16.262C65.8894 14.6854 65.0637 12.4068 65.0637 9.42583C65.0637 6.4254 65.8894 4.13687 67.5404 2.56021C69.2108 0.983611 71.4233 0.195312 74.1775 0.195312ZM74.1775 3.45365C72.5264 3.45365 71.2307 4.03139 70.2905 5.18688C69.3697 6.32297 68.9093 7.72779 68.9093 9.42583C68.9093 11.085 69.3599 12.4802 70.2611 13.6163C71.1623 14.733 72.4678 15.2913 74.1775 15.2913C75.9068 15.2913 77.2123 14.733 78.0939 13.6163C78.9755 12.4802 79.4164 11.085 79.4164 9.42583C79.4164 7.74717 78.9658 6.34235 78.0646 5.21136C77.1634 4.06615 75.8677 3.49349 74.1775 3.45365Z" fill="currentColor"></path><path fill-rule="evenodd" clip-rule="evenodd" d="M85.8079 0.415771H91.1846C92.6511 0.415771 93.7833 0.739511 94.5811 1.387C95.3986 2.03459 95.8072 2.96802 95.8072 4.18827C95.8072 5.0566 95.6274 5.75372 95.2677 6.2796C94.9181 6.80548 94.4063 7.21364 93.7342 7.50422L95.8072 10.9322V22.6489H92.3896V11.2338L90.371 7.69233H89.2763V22.6489H85.8079V0.415771ZM89.2763 4.42871V4.42873L89.2736 4.42871H89.2763ZM89.2763 4.42871V4.88533C89.2763 4.88533 91.0587 4.86054 91.0587 4.86054C91.3884 4.86054 91.6563 4.73674 91.862 4.49123C92.0666 4.24566 92.1682 3.84711 92.1682 3.35067C92.1682 2.85424 92.0666 2.49518 91.862 2.2744C91.6563 2.05363 91.3884 1.94324 91.0587 1.94324L89.2736 1.94323V4.42871H89.2763Z" fill="currentColor"></path><path fill-rule="evenodd" clip-rule="evenodd" d="M32.4368 19.3913C32.4368 19.3913 32.4368 22.6487 32.4368 22.6487L46.4861 22.6487V19.3913L32.4368 19.3913Z" fill="currentColor"></path></svg>
